<?xml version="1.0" encoding="utf-8"?>

<!DOCTYPE svg PUBLIC "-//W3C//DTD SVG 1.0//EN" "http://www.w3.org/TR/2001/REC-SVG-20010904/DTD/svg10.dtd">
<!-- Uploaded to: SVG Repo, www.svgrepo.com, Generator: SVG Repo Mixer Tools -->
<svg version="1.0" id="Layer_1" xmlns="http://www.w3.org/2000/svg" xmlns:xlink="http://www.w3.org/1999/xlink" 
	 width="800px" height="800px" viewBox="0 0 64 64" enable-background="new 0 0 64 64" xml:space="preserve">
<g>
	<rect x="46" y="40" fill="#18D26E" width="6" height="4"/>
	<rect y="20" fill="#18D26E" width="64" height="8"/>
	<path fill="#18D26E" d="M64,18v-6c0-2.211-1.789-4-4-4H4c-2.211,0-4,1.789-4,4v6H64z"/>
	<path fill="#18D26E" d="M0,30v22c0,2.211,1.789,4,4,4h56c2.211,0,4-1.789,4-4V30H0z M21,46H11c-0.553,0-1-0.447-1-1s0.447-1,1-1h10
		c0.553,0,1,0.447,1,1S21.553,46,21,46z M25,40H11c-0.553,0-1-0.447-1-1s0.447-1,1-1h14c0.553,0,1,0.447,1,1S25.553,40,25,40z
		 M35,40h-6c-0.553,0-1-0.447-1-1s0.447-1,1-1h6c0.553,0,1,0.447,1,1S35.553,40,35,40z M54,45c0,0.553-0.447,1-1,1h-8
		c-0.553,0-1-0.447-1-1v-6c0-0.553,0.447-1,1-1h8c0.553,0,1,0.447,1,1V45z"/>
</g>
</svg>