<?xml version="1.0" encoding="iso-8859-1"?>
<!-- Uploaded to: SVG Repo, www.svgrepo.com, Generator: SVG Repo Mixer Tools -->
<svg fill="#18D26E" height="800px" width="800px" version="1.1" id="Layer_1" xmlns="http://www.w3.org/2000/svg" xmlns:xlink="http://www.w3.org/1999/xlink" 
	 viewBox="0 0 298.748 298.748" xml:space="preserve">
<g id="XMLID_1429_">
	<g>
		<g>
			<path d="M89.486,99.966l5.118,2.999l10.451-6.427c1.463-0.9,2.999-1.573,4.57-2.038l-12.606-7.387
				c-3.552-2.081-8.113-0.889-10.193,2.661C84.746,93.323,85.937,97.887,89.486,99.966z"/>
			<path d="M194.008,187.239c5.392,0,9.764-4.372,9.764-9.764c0-5.393-4.372-9.764-9.764-9.764H99.344
				c-5.393,0-9.764,4.372-9.764,9.764c0,5.393,4.372,9.764,9.764,9.764h39.885v46.522h-7.948c-4.113,0-7.447,3.334-7.447,7.447
				c0,4.113,3.334,7.447,7.447,7.447h30.791c4.113,0,7.447-3.334,7.447-7.447c0-4.113-3.334-7.447-7.447-7.447h-7.949v-46.522
				H194.008z"/>
			<path d="M80.72,177.226c-1.169-3.279-3.799-5.825-7.112-6.888l-10.951-3.51l7.194-25.11l-18.93-16.393l30.517,14.102
				c2.778,1.283,6.078,1.142,8.782-0.521l29.67-18.248c4.379-2.694,5.746-8.427,3.052-12.806c-2.694-4.379-8.427-5.746-12.806-3.052
				l-25.418,15.634l-25.987-12.009l13.749,2.106c-1.581-1.776-3.658-3.147-6.112-3.851l-21.263-6.092
				c-3.485-0.998-7.227-0.497-10.326,1.384c-3.099,1.881-5.271,4.97-5.993,8.522l-12.821,63.063
				c-0.664,3.266,0.174,6.657,2.283,9.237c0.327,0.4,0.686,0.764,1.06,1.11H7.621c-0.541,0-1.067,0.061-1.576,0.17
				C2.603,184.73,0,187.751,0,191.384v49.815c0,4.113,3.334,7.447,7.447,7.447s7.447-3.334,7.447-7.447v-42.401H49.29v42.401
				c0,4.113,3.334,7.447,7.447,7.447s7.447-3.334,7.447-7.447v-43.818l15.626,43.848c2.072,5.815,8.466,8.843,14.272,6.772
				c5.812-2.071,8.844-8.461,6.773-14.273L80.72,177.226z"/>
			<circle cx="66.103" cy="76.449" r="19.243"/>
			<circle cx="252.446" cy="69.335" r="19.243"/>
			<path d="M291.129,183.905h-14.077c0.415-0.256,0.819-0.532,1.201-0.844c2.579-2.111,4.073-5.268,4.07-8.6l-0.054-64.353
				c-0.006-7.573-6.471-13.548-14.029-12.947l-22.049,1.752c-7.156,0.569-12.498,6.831-11.929,13.988l0.922,11.603l1.781-0.025
				l16.473-14.381l-15.502,24.067l-29.838,0.426c-5.14,0.073-9.248,4.3-9.175,9.441c0.073,5.095,4.226,9.176,9.305,9.176
				c0.045,0,0.091,0,0.136-0.001l34.828-0.498c3.117-0.044,6.005-1.646,7.693-4.267l18.205-28.263l-10.052,33.515
				c-1.559,5.197-6.287,8.576-11.439,8.655c-5.26,0.071-3.13,0.042-9.398,0.131l0.362,4.555l-12.661,3.092
				c-3.652,0.892-6.611,3.561-7.872,7.102l-20.136,56.505c-2.072,5.812,0.961,12.201,6.773,14.273
				c5.812,2.072,12.202-0.963,14.272-6.772l15.626-43.85v43.82c0,4.113,3.335,7.447,7.447,7.447c4.113,0,7.447-3.334,7.447-7.447
				v-42.401h34.395v42.401c0,4.113,3.335,7.447,7.447,7.447s7.447-3.334,7.447-7.447v-49.815
				C298.748,187.265,295.406,183.905,291.129,183.905z"/>
			<path d="M104.088,144.815c-0.057,0.25-0.09,0.502-0.09,0.757c0,4.239,6.881,7.896,16.812,9.586v1.397
				c0,2.202,1.786,3.988,3.988,3.988h16.795c2.203,0,3.988-1.786,3.988-3.988v-1.396c9.931-1.69,16.812-5.346,16.812-9.586
				c0-0.255-0.032-0.506-0.088-0.755c-0.11-0.487-0.933-0.854-1.915-0.854h-54.387C105.024,143.963,104.2,144.33,104.088,144.815z"
				/>
		</g>
	</g>
</g>
</svg>