<?xml version="1.0" encoding="iso-8859-1"?>
<!-- Uploaded to: SVG Repo, www.svgrepo.com, Generator: SVG Repo Mixer Tools -->
<svg fill="#41FFC3" height="800px" width="800px" version="1.1" id="Layer_1" xmlns="http://www.w3.org/2000/svg" xmlns:xlink="http://www.w3.org/1999/xlink" 
	 viewBox="0 0 512 512" xml:space="preserve">
<g>
	<g>
		<g>
			<path d="M0,21.333v469.333C0,502.443,9.557,512,21.333,512h213.333V0H21.333C9.557,0,0,9.557,0,21.333z M192,448
				c-11.776,0-21.333-9.557-21.333-21.333s9.557-21.333,21.333-21.333s21.333,9.557,21.333,21.333S203.776,448,192,448z M192,384
				h-42.667C137.557,384,128,374.443,128,362.667s9.557-21.333,21.333-21.333H192c11.776,0,21.333,9.557,21.333,21.333
				S203.776,384,192,384z M192,320c-11.776,0-21.333-9.557-21.333-21.333s9.557-21.333,21.333-21.333s21.333,9.557,21.333,21.333
				S203.776,320,192,320z M64,138.667C64,97.493,97.493,64,138.667,64c41.173,0,74.667,33.493,74.667,74.667v10.667
				c0,11.776-9.557,21.333-21.333,21.333H85.333c-11.776,0-21.333-9.557-21.333-21.333V138.667z M85.333,192H192
				c11.776,0,21.333,9.557,21.333,21.333s-9.557,21.333-21.333,21.333H85.333c-11.776,0-21.333-9.557-21.333-21.333
				S73.557,192,85.333,192z M85.333,277.333H128c11.776,0,21.333,9.557,21.333,21.333S139.776,320,128,320H85.333
				C73.557,320,64,310.443,64,298.667S73.557,277.333,85.333,277.333z M85.333,341.333c11.776,0,21.333,9.557,21.333,21.333
				S97.109,384,85.333,384S64,374.443,64,362.667S73.557,341.333,85.333,341.333z M85.333,405.333H128
				c11.776,0,21.333,9.557,21.333,21.333S139.776,448,128,448H85.333C73.557,448,64,438.443,64,426.667
				S73.557,405.333,85.333,405.333z"/>
			<path d="M138.667,106.667c-13.909,0-25.771,8.917-30.187,21.333h60.373C164.437,115.584,152.576,106.667,138.667,106.667z"/>
			<path d="M490.667,0H277.333v512h213.333c11.797,0,21.333-9.557,21.333-21.333V21.333C512,9.557,502.464,0,490.667,0z M320,64
				h42.667C374.443,64,384,73.557,384,85.333s-9.557,21.333-21.333,21.333H320c-11.776,0-21.333-9.557-21.333-21.333
				S308.224,64,320,64z M320,128c11.776,0,21.333,9.557,21.333,21.333s-9.557,21.333-21.333,21.333s-21.333-9.557-21.333-21.333
				S308.224,128,320,128z M320,192h42.667c11.776,0,21.333,9.557,21.333,21.333s-9.557,21.333-21.333,21.333H320
				c-11.776,0-21.333-9.557-21.333-21.333S308.224,192,320,192z M320,256h42.667c11.776,0,21.333,9.557,21.333,21.333
				s-9.557,21.333-21.333,21.333H320c-11.776,0-21.333-9.557-21.333-21.333S308.224,256,320,256z M320,320
				c11.776,0,21.333,9.557,21.333,21.333c0,11.776-9.557,21.333-21.333,21.333s-21.333-9.557-21.333-21.333
				C298.667,329.557,308.224,320,320,320z M362.667,426.667H320c-11.776,0-21.333-9.557-21.333-21.333S308.224,384,320,384h42.667
				c11.776,0,21.333,9.557,21.333,21.333S374.443,426.667,362.667,426.667z M426.667,426.667c-11.776,0-21.333-9.557-21.333-21.333
				S414.891,384,426.667,384S448,393.557,448,405.333S438.443,426.667,426.667,426.667z M426.667,362.667H384
				c-11.776,0-21.333-9.557-21.333-21.333c0-11.776,9.557-21.333,21.333-21.333h42.667c11.776,0,21.333,9.557,21.333,21.333
				C448,353.109,438.443,362.667,426.667,362.667z M426.667,298.667c-11.776,0-21.333-9.557-21.333-21.333S414.891,256,426.667,256
				S448,265.557,448,277.333S438.443,298.667,426.667,298.667z M426.667,234.667c-11.776,0-21.333-9.557-21.333-21.333
				S414.891,192,426.667,192S448,201.557,448,213.333S438.443,234.667,426.667,234.667z M426.667,170.667H384
				c-11.776,0-21.333-9.557-21.333-21.333S372.224,128,384,128h42.667c11.776,0,21.333,9.557,21.333,21.333
				S438.443,170.667,426.667,170.667z M426.667,106.667c-11.776,0-21.333-9.557-21.333-21.333S414.891,64,426.667,64
				S448,73.557,448,85.333S438.443,106.667,426.667,106.667z"/>
		</g>
	</g>
</g>
</svg>