<?xml version="1.0" encoding="iso-8859-1"?>
<!-- Uploaded to: SVG Repo, www.svgrepo.com, Generator: SVG Repo Mixer Tools -->
<svg fill="#41FFC3" height="800px" width="800px" version="1.1" id="Layer_1" xmlns="http://www.w3.org/2000/svg" xmlns:xlink="http://www.w3.org/1999/xlink" 
	 viewBox="0 0 512 512" xml:space="preserve">
<g>
	<g>
		<path d="M139.323,146.482h136.757c10.743,54.695,59.046,96.086,116.842,96.086C458.581,242.568,512,189.15,512,123.49
			C512,57.829,458.581,4.411,392.921,4.411c-57.796,0-106.1,41.391-116.843,96.087H139.323
			C129.744,72.26,103.035,51.93,71.559,51.93C32.038,51.93,0,83.968,0,123.49c0,31.475,20.33,58.184,48.567,67.763v177.014
			C20.33,377.845,0,404.554,0,436.03c0,39.521,32.038,71.559,71.559,71.559c31.475,0,58.184-20.33,67.763-48.568h116.225
			c9.579,28.238,36.288,48.567,67.763,48.567c39.522,0,71.559-32.039,71.559-71.559c0-39.521-32.038-71.559-71.559-71.559
			c-31.474,0-58.183,20.329-67.762,48.567H139.323c-7.131-21.019-23.752-37.64-44.771-44.77V191.252
			C115.57,184.122,132.192,167.501,139.323,146.482z M392.921,61.891c33.965,0,61.599,27.633,61.599,61.599
			c0,33.965-27.633,61.599-61.599,61.599c-33.965,0-61.599-27.632-61.599-61.599C331.323,89.524,358.956,61.891,392.921,61.891z"/>
	</g>
</g>
</svg>