<?xml version="1.0" encoding="utf-8"?><!-- Uploaded to: SVG Repo, www.svgrepo.com, Generator: SVG Repo Mixer Tools -->
<svg width="800px" height="800px" viewBox="-0.5 0 25 25" fill="none" xmlns="http://www.w3.org/2000/svg">
<path d="M0.75 14.254V23.254" stroke="#41FFC3" stroke-width="1.5" stroke-linecap="round" stroke-linejoin="round"/>
<path d="M0.75 15.754H6C6.79565 15.754 7.55871 16.0701 8.12132 16.6327C8.68393 17.1953 9 17.9584 9 18.754H12.75C13.5456 18.754 14.3087 19.0701 14.8713 19.6327C15.4339 20.1953 15.75 20.9584 15.75 21.754H0.75" stroke="#41FFC3" stroke-width="1.5" stroke-linecap="round" stroke-linejoin="round"/>
<path d="M6 18.754H9" stroke="#41FFC3" stroke-width="1.5" stroke-linecap="round" stroke-linejoin="round"/>
<path d="M2.25 11.254H23.25" stroke="#41FFC3" stroke-width="1.5" stroke-linecap="round" stroke-linejoin="round"/>
<path d="M12.75 0.754028V2.25403" stroke="#41FFC3" stroke-width="1.5" stroke-linecap="round" stroke-linejoin="round"/>
<path d="M21.75 11.254C21.75 8.86708 20.8018 6.57789 19.114 4.89007C17.4261 3.20224 15.1369 2.25403 12.75 2.25403C10.3631 2.25403 8.07387 3.20224 6.38604 4.89007C4.69821 6.57789 3.75 8.86708 3.75 11.254" stroke="#41FFC3" stroke-width="1.5" stroke-linecap="round" stroke-linejoin="round"/>
<path d="M11.25 14.254H18.4C18.956 14.2536 19.5009 14.0988 19.9739 13.8067C20.447 13.5147 20.8296 13.0969 21.079 12.6L21.7115 11.3314" stroke="#41FFC3" stroke-width="1.5" stroke-linecap="round" stroke-linejoin="round"/>
</svg>