<?xml version="1.0" encoding="iso-8859-1"?>
<!-- Uploaded to: SVG Repo, www.svgrepo.com, Generator: SVG Repo Mixer Tools -->
<svg fill="#18D26E" height="800px" width="800px" version="1.1" id="Layer_1" xmlns="http://www.w3.org/2000/svg" xmlns:xlink="http://www.w3.org/1999/xlink" 
	 viewBox="0 0 512 512" xml:space="preserve">
<g>
	<g>
		<path d="M400.696,278.261v166.957h77.913c18.413,0,33.391-14.978,33.391-33.391V278.261H400.696z"/>
	</g>
</g>
<g>
	<g>
		<path d="M478.609,144.696h-77.913v66.783H512v-33.391C512,159.674,497.022,144.696,478.609,144.696z"/>
	</g>
</g>
<g>
	<g>
		<path d="M333.913,77.913h-50.087V16.696C283.826,7.473,276.348,0,267.13,0H100.174c-9.217,0-16.696,7.473-16.696,16.696v61.217
			H33.391C14.978,77.913,0,92.891,0,111.304v367.304C0,497.022,14.978,512,33.391,512h300.522c18.413,0,33.391-14.978,33.391-33.391
			V111.304C367.304,92.891,352.326,77.913,333.913,77.913z M116.87,33.391h133.565v111.304H116.87V33.391z M83.478,178.087h200.348
			v33.391H83.478V178.087z M116.87,445.217H83.478c-9.217,0-16.696-7.473-16.696-16.696c0-9.223,7.479-16.696,16.696-16.696h33.391
			c9.217,0,16.696,7.473,16.696,16.696C133.565,437.744,126.087,445.217,116.87,445.217z M116.87,378.435H83.478
			c-9.217,0-16.696-7.473-16.696-16.696c0-9.223,7.479-16.696,16.696-16.696h33.391c9.217,0,16.696,7.473,16.696,16.696
			C133.565,370.962,126.087,378.435,116.87,378.435z M116.87,311.652H83.478c-9.217,0-16.696-7.473-16.696-16.696
			c0-9.223,7.479-16.696,16.696-16.696h33.391c9.217,0,16.696,7.473,16.696,16.696C133.565,304.179,126.087,311.652,116.87,311.652z
			 M217.043,445.217h-33.391c-9.217,0-16.696-7.473-16.696-16.696c0-9.223,7.479-16.696,16.696-16.696h33.391
			c9.217,0,16.696,7.473,16.696,16.696C233.739,437.744,226.261,445.217,217.043,445.217z M217.043,378.435h-33.391
			c-9.217,0-16.696-7.473-16.696-16.696c0-9.223,7.479-16.696,16.696-16.696h33.391c9.217,0,16.696,7.473,16.696,16.696
			C233.739,370.962,226.261,378.435,217.043,378.435z M217.043,311.652h-33.391c-9.217,0-16.696-7.473-16.696-16.696
			c0-9.223,7.479-16.696,16.696-16.696h33.391c9.217,0,16.696,7.473,16.696,16.696C233.739,304.179,226.261,311.652,217.043,311.652
			z M300.522,428.522c0,9.223-7.479,16.696-16.696,16.696c-9.217,0-16.696-7.473-16.696-16.696V294.957
			c0-9.223,7.479-16.696,16.696-16.696c9.217,0,16.696,7.473,16.696,16.696V428.522z"/>
	</g>
</g>
</svg>