<?xml version="1.0" encoding="iso-8859-1"?>
<!-- Uploaded to: SVG Repo, www.svgrepo.com, Generator: SVG Repo Mixer Tools -->
<svg fill="#18D26E" height="800px" width="800px" version="1.1" id="Layer_1" xmlns="http://www.w3.org/2000/svg" xmlns:xlink="http://www.w3.org/1999/xlink" 
	 viewBox="0 0 512 512" xml:space="preserve">
<g transform="translate(0 -1)">
	<g>
		<g>
			<path d="M381.831,236.788v95.501c0.538-0.2,1.111-0.286,1.666-0.443c0.746-0.217,1.475-0.46,2.239-0.599
				c1.562-0.304,3.159-0.486,4.773-0.486c1.614,0,3.211,0.182,4.773,0.486c0.764,0.139,1.493,0.382,2.239,0.599
				c0.555,0.156,1.128,0.243,1.666,0.443v-70.951C399.186,250.022,391.932,240.372,381.831,236.788z"/>
			<path d="M383.514,351.937c-0.981,1.406-1.684,3.02-1.684,4.86v52.068c0,4.79,3.888,8.678,8.678,8.678s8.678-3.888,8.678-8.678
				v-52.068c0-1.84-0.703-3.454-1.684-4.86C394.188,347.268,386.829,347.268,383.514,351.937z"/>
			<path d="M365.021,143.336c10.309-9.52,16.809-23.092,16.809-38.2c0-28.715-23.352-52.068-52.068-52.068H52.068V35.712
				c0-14.353-11.681-26.034-26.034-26.034C11.681,9.678,0,21.359,0,35.712v242.983c0,14.353,11.681,26.034,26.034,26.034
				c14.353,0,26.034-11.681,26.034-26.034V105.136h225.627c0,15.108,6.5,28.681,16.809,38.2
				c-83.656,16.479-146.979,90.329-146.979,178.749c0,100.482,81.755,182.237,182.237,182.237S512,422.567,512,322.085
				C512,233.665,448.677,159.815,365.021,143.336z M329.763,261.339c0,20.949-14.935,38.478-34.712,42.513v28.507
				c10.075,3.593,17.356,13.138,17.356,24.437v52.068c0,14.353-11.681,26.034-26.034,26.034c-14.353,0-26.034-11.681-26.034-26.034
				v-52.068c0-11.299,7.281-20.844,17.356-24.437v-28.507c-19.777-4.035-34.712-21.565-34.712-42.513v-34.712
				c0-4.799,3.879-8.678,8.678-8.678s8.678,3.879,8.678,8.678v34.712c0,11.299,7.281,20.844,17.356,24.437v-59.149
				c0-4.799,3.879-8.678,8.678-8.678c4.799,0,8.678,3.879,8.678,8.678v59.149c10.075-3.593,17.356-13.138,17.356-24.437v-34.712
				c0-4.799,3.879-8.678,8.678-8.678c4.799,0,8.678,3.879,8.678,8.678V261.339z M329.763,139.847
				c-19.144,0-34.712-15.568-34.712-34.712c0-4.669,0.955-9.112,2.629-13.182c0.252-0.59,0.581-1.128,0.859-1.71
				c0.642-1.336,1.31-2.655,2.117-3.896c0.434-0.668,0.937-1.293,1.423-1.926c0.764-1.033,1.571-2.031,2.447-2.968
				c0.616-0.651,1.267-1.267,1.927-1.866c0.877-0.798,1.779-1.545,2.734-2.256c0.755-0.564,1.536-1.102,2.343-1.605
				c0.981-0.607,2.013-1.145,3.063-1.666c0.842-0.408,1.684-0.833,2.56-1.18c1.215-0.477,2.473-0.833,3.749-1.172
				c0.781-0.208,1.545-0.469,2.343-0.625c2.117-0.408,4.287-0.659,6.517-0.659c19.144,0,34.712,15.568,34.712,34.712
				C364.475,124.279,348.906,139.847,329.763,139.847z M416.542,348.119c0,1.111-0.252,2.143-0.625,3.115
				c0.39,1.796,0.625,3.653,0.625,5.563v52.068c0,14.353-11.681,26.034-26.034,26.034s-26.034-11.681-26.034-26.034v-52.068
				c0-1.909,0.234-3.766,0.634-5.563c-0.382-0.972-0.634-2.005-0.634-3.115V226.627c0-4.799,3.879-8.678,8.678-8.678
				c23.925,0,43.39,19.465,43.39,43.39V348.119z"/>
			<path d="M286.373,348.119c-4.79,0-8.678,3.888-8.678,8.678v52.068c0,4.79,3.888,8.678,8.678,8.678s8.678-3.888,8.678-8.678
				v-52.068C295.051,352.006,291.163,348.119,286.373,348.119z"/>
		</g>
	</g>
</g>
</svg>